#!OML:ASF C:\ViconDB\ViconDB\414\Spring2016\042216\male.ASF
:FULLY-SPECIFIED
:DEGREES
962
root 44.9904 17.8403 11.4103 899.195 62.9598 1258.89
lowerback -3.33303 -1.15016 5.23509
upperback -0.73003 -1.69367 -0.71265
thorax 0.943144 -0.831737 -3.73841
lowerneck 1.29871 15.8743 1.60819
upperneck 1.90341 21.5759 -7.48178
head 1.46055 10.8097 -2.24227
rclavicle 1.17159e-014 5.96354e-016
rhumerus -29.9885 -4.04522 -93.0086
rradius 24.892
rwrist 36.4475
rhand 13.8655 -18.8046
rfingers 7.12502
rthumb 38.7827 -44.3865
lclavicle 1.17159e-014 5.96354e-016
lhumerus -35.9446 17.1942 85.3566
lradius 30.6447
lwrist -20.2461
lhand -6.9022 13.0909
lfingers 7.12502
lthumb 18.9649 42.1863
rfemur -2.56754 18.0732 21.062
rtibia 22.4159
rfoot -22.0571 -14.8485
rtoes -13.742
lfemur -7.69054 -5.10701 -17.6081
ltibia 23.7526
lfoot -28.6223 -15.9438
ltoes -18.7943
963
root 44.9886 17.8401 11.4105 899.221 62.9871 1258.91
lowerback -3.34837 -1.14711 5.24778
upperback -0.735813 -1.69066 -0.710789
thorax 0.945755 -0.830191 -3.74383
lowerneck 1.30778 15.8853 1.61781
upperneck 1.92235 21.5928 -7.48483
head 1.46756 10.8181 -2.24363
rclavicle 3.67876e-014 -6.95746e-015
rhumerus -29.9937 -3.91358 -93.1142
rradius 24.9742
rwrist 35.7207
rhand 13.9824 -19.1744
rfingers 7.12502
rthumb 38.8929 -44.725
lclavicle 3.67876e-014 -6.95746e-015
lhumerus -35.917 17.0933 85.4103
lradius 30.6434
lwrist -20.1426
lhand -6.94342 13.1401
lfingers 7.12502
lthumb 18.9252 42.2395
rfemur -2.59159 18.1134 21.0658
rtibia 22.4106
rfoot -22.0544 -14.8356
rtoes -13.7685
lfemur -7.707 -5.10665 -17.5996
ltibia 23.7571
lfoot -28.3338 -16.1765
ltoes -17.8679
964
root 44.9871 17.8392 11.4099 899.378 63.0225 1259.07
lowerback -3.36603 -1.14199 5.32016
upperback -0.747075 -1.68695 -0.688559
thorax 0.942933 -0.828346 -3.76171
lowerneck 1.58438 15.907 1.88574
upperneck 1.80737 21.63 -7.71873
head 1.44691 10.8466 -2.37625
rclavicle 6.6332e-014 -7.95139e-016
rhumerus -30.023 -3.89336 -93.142
rradius 24.9023
rwrist 36.1225
rhand 13.8154 -19.0242
rfingers 7.12502
rthumb 38.7354 -44.6195
lclavicle 6.6332e-014 -7.95139e-016
lhumerus -35.9323 16.894 85.495
lradius 30.7297
lwrist -20.0304
lhand -7.10517 14.0894
lfingers 7.12502
lthumb 18.7697 43.2039
rfemur -2.62939 18.1017 21.1265
rtibia 22.4183
rfoot -22.1045 -14.7455
rtoes -13.672
lfemur -7.70134 -5.21339 -17.5133
ltibia 23.7518
lfoot -28.3782 -15.9835
ltoes -18.134
965
root 44.9858 17.8395 11.4088 899.359 63.0471 1259.04
lowerback -3.37639 -1.15252 5.30123
upperback -0.751669 -1.70075 -0.685841
thorax 0.943211 -0.835331 -3.74892
lowerneck 1.57743 15.9319 1.89211
upperneck 1.83876 21.6663 -7.71511
head 1.4605 10.864 -2.37236
rclavicle 1.84497e-014 -7.95139e-015
rhumerus -30.047 -3.87735 -93.1724
rradius 24.855
rwrist 36.4168
rhand 13.801 -18.8697
rfingers 7.12502
rthumb 38.7219 -44.4688
lclavicle 1.84497e-014 -7.95139e-015
lhumerus -35.9227 16.8407 85.5114
lradius 30.7091
lwrist -20.0121
lhand -7.23015 14.0681
lfingers 7.12502
lthumb 18.6495 43.1941
rfemur -2.64146 18.1665 21.1063
rtibia 22.4207
rfoot -22.1305 -14.7441
rtoes -13.6933
lfemur -7.71676 -5.19657 -17.5333
ltibia 23.7522
lfoot -28.2319 -16.1
ltoes -17.6808
966
root 44.986 17.8395 11.4086 899.283 63.0892 1258.99
lowerback -3.39257 -1.15179 5.25135
upperback -0.730196 -1.69988 -0.675571
thorax 0.976335 -0.833699 -3.71098
lowerneck 1.60016 15.9323 1.8782
upperneck 1.79572 21.6648 -7.74155
head 1.44444 10.8647 -2.38264
rclavicle -2.95816e-014 1.47101e-014
rhumerus -30.0369 -3.77977 -93.2299
rradius 24.8332
rwrist 36.3309
rhand 13.7611 -18.8806
rfingers 7.12502
rthumb 38.6843 -44.4903
lclavicle -2.95816e-014 1.47101e-014
lhumerus -35.8833 16.8406 85.5622
lradius 30.6977
lwrist -19.9889
lhand -7.22052 14.0533
lfingers 7.12502
lthumb 18.6587 43.1784
rfemur -2.62025 18.1642 21.0864
rtibia 22.4249
rfoot -22.0004 -14.8295
rtoes -13.7756
lfemur -7.68973 -5.17686 -17.572
ltibia 23.7529
lfoot -27.7858 -16.4693
ltoes -16.0608
967
root 44.9856 17.8401 11.4076 899.224 63.1146 1258.93
lowerback -3.40451 -1.15132 5.23364
upperback -0.720753 -1.6996 -0.682558
thorax 0.993112 -0.832994 -3.70871
lowerneck 1.57719 15.9527 1.85951
upperneck 1.80574 21.6932 -7.74063
head 1.45076 10.8781 -2.3762
rclavicle 5.59455e-014 -1.0138e-014
rhumerus -30.04 -3.80679 -93.258
rradius 24.8412
rwrist 36.3815
rhand 13.8512 -18.8906
rfingers 7.12502
rthumb 38.7692 -44.4763
lclavicle 5.59455e-014 -1.0138e-014
lhumerus -35.8696 16.8439 85.5832
lradius 30.7229
lwrist -19.9791
lhand -7.25665 14.0744
lfingers 7.12502
lthumb 18.624 43.2029
rfemur -2.6203 18.1379 21.0534
rtibia 22.4437
rfoot -21.9956 -14.8204
rtoes -13.612
lfemur -7.67776 -5.14275 -17.613
ltibia 23.7423
lfoot -27.5473 -16.6499
ltoes -15.1272
968
root 44.9852 17.8398 11.4089 899.3 63.108 1259.04
lowerback -3.39263 -1.15258 5.26294
upperback -0.722753 -1.70162 -0.673991
thorax 0.98357 -0.834219 -3.71605
lowerneck 1.56114 15.9597 1.87985
upperneck 1.84458 21.707 -7.74749
head 1.47004 10.884 -2.37681
rclavicle 2.03754e-015 -1.23246e-014
rhumerus -30.0491 -3.82154 -93.3028
rradius 24.8261
rwrist 36.3307
rhand 13.8798 -18.8805
rfingers 7.12502
rthumb 38.7962 -44.4586
lclavicle 2.03754e-015 -1.23246e-014
lhumerus -35.865 16.8758 85.552
lradius 30.6964
lwrist -20.0862
lhand -7.27105 14.0154
lfingers 7.12502
lthumb 18.6101 43.1452
rfemur -2.60498 18.2146 21.1365
rtibia 22.4566
rfoot -21.9929 -14.9544
rtoes -13.5251
lfemur -7.65342 -5.15339 -17.5494
ltibia 23.7392
lfoot -27.4953 -16.7206
ltoes -14.7114
969
root 44.9836 17.8398 11.4068 899.293 63.1362 1259.02
lowerback -3.41047 -1.1572 5.25873
upperback -0.735179 -1.70816 -0.66833
thorax 0.980366 -0.837743 -3.70833
lowerneck 1.58994 15.9781 1.92468
upperneck 1.85986 21.7377 -7.7967
head 1.48344 10.9001 -2.39765
rclavicle 2.79168e-014 7.55382e-015
rhumerus -30.0869 -3.77971 -93.329
rradius 24.8219
rwrist 36.3716
rhand 13.9545 -18.7576
rfingers 7.12502
rthumb 38.8667 -44.3157
lclavicle 2.79168e-014 7.55382e-015
lhumerus -35.8628 16.8522 85.5775
lradius 30.6747
lwrist -20.0695
lhand -7.28964 14.0365
lfingers 7.12502
lthumb 18.5922 43.168
rfemur -2.64022 18.1051 21.0996
rtibia 22.4665
rfoot -21.9273 -14.8546
rtoes -13.6251
lfemur -7.6603 -5.12416 -17.5641
ltibia 23.735
lfoot -27.6771 -16.5626
ltoes -15.4239
970
root 44.9831 17.8397 11.4068 899.355 63.165 1259.1
lowerback -3.42211 -1.1665 5.25215
upperback -0.742116 -1.72092 -0.635956
thorax 0.979624 -0.844164 -3.67178
lowerneck 1.60966 15.9974 1.93344
upperneck 1.87439 21.7685 -7.83209
head 1.49221 10.9161 -2.409
rclavicle 4.82053e-014 -4.57205e-015
rhumerus -30.111 -3.76465 -93.3361
rradius 24.827
rwrist 36.2942
rhand 14.061 -18.7284
rfingers 7.12502
rthumb 38.9671 -44.2578
lclavicle 4.82053e-014 -4.57205e-015
lhumerus -35.8574 16.725 85.6584
lradius 30.6613
lwrist -19.9949
lhand -7.28596 14.0669
lfingers 7.12502
lthumb 18.5958 43.198
rfemur -2.64767 18.1533 21.14
rtibia 22.4839
rfoot -21.952 -14.8477
rtoes -13.6027
lfemur -7.65315 -5.06301 -17.5209
ltibia 23.7227
lfoot -27.7759 -16.51
ltoes -16.133
971
root 44.9822 17.8385 11.4064 899.247 63.1977 1259
lowerback -3.40154 -1.17494 5.19844
upperback -0.750888 -1.72886 -0.640052
thorax 0.959756 -0.84899 -3.64538
lowerneck 1.62978 16.0186 1.93098
upperneck 1.896 21.7986 -7.8201
head 1.49575 10.9313 -2.40477
rclavicle 1.33931e-014 1.78906e-015
rhumerus -30.1475 -3.76467 -93.3537
rradius 24.8299
rwrist 36.2366
rhand 14.0673 -18.7484
rfingers 7.12502
rthumb 38.973 -44.2761
lclavicle 1.33931e-014 1.78906e-015
lhumerus -35.8692 16.6555 85.7023
lradius 30.6484
lwrist -19.8564
lhand -7.35924 14.0848
lfingers 7.12502
lthumb 18.5253 43.2226
rfemur -2.62263 18.2265 21.1011
rtibia 22.5016
rfoot -21.9895 -14.8076
rtoes -13.5751
lfemur -7.59914 -5.11184 -17.5714
ltibia 23.7067
lfoot -27.8863 -16.3316
ltoes -16.4063
972
root 44.9817 17.8386 11.4056 899.1 63.2307 1258.86
lowerback -3.40424 -1.16837 5.14088
upperback -0.744998 -1.71833 -0.66517
thorax 0.969374 -0.843574 -3.63879
lowerneck 1.64703 16.0178 1.96245
upperneck 1.8798 21.7993 -7.85872
head 1.49628 10.9325 -2.42252
rclavicle 8.32411e-016 -3.18055e-015
rhumerus -30.167 -3.7972 -93.3669
rradius 24.8513
rwrist 36.2979
rhand 14.1202 -18.7087
rfingers 7.12502
rthumb 39.0229 -44.2221
lclavicle 8.32411e-016 -3.18055e-015
lhumerus -35.862 16.7302 85.6668
lradius 30.6302
lwrist -20.0005
lhand -7.33568 14.0457
lfingers 7.12502
lthumb 18.548 43.1814
rfemur -2.62209 18.13 21.0157
rtibia 22.516
rfoot -21.9878 -14.6809
rtoes -13.7426
lfemur -7.57436 -5.05702 -17.6516
ltibia 23.6947
lfoot -28.3215 -15.9535
ltoes -17.8676
973
root 44.9805 17.8385 11.4047 899.125 63.2667 1258.92
lowerback -3.38303 -1.17008 5.21602
upperback -0.743056 -1.72191 -0.693256
thorax 0.955978 -0.845628 -3.70971
lowerneck 1.67732 16.0174 2.00296
upperneck 1.83892 21.7964 -7.88105
head 1.48531 10.9325 -2.43929
rclavicle 4.03409e-014 1.74931e-014
rhumerus -30.1806 -3.79807 -93.4352
rradius 24.8749
rwrist 36.2784
rhand 14.1569 -18.7611
rfingers 7.12502
rthumb 39.0574 -44.2646
lclavicle 4.03409e-014 1.74931e-014
lhumerus -35.8571 16.7057 85.6236
lradius 30.6318
lwrist -20.0434
lhand -7.28704 14.0679
lfingers 7.12502
lthumb 18.5947 43.1992
rfemur -2.60587 18.1352 21.0486
rtibia 22.5288
rfoot -21.9526 -14.6998
rtoes -13.7728
lfemur -7.53726 -5.04542 -17.6268
ltibia 23.6802
lfoot -28.2953 -15.9489
ltoes -18.0945
974
root 44.9787 17.8377 11.4045 899.121 63.2937 1258.94
lowerback -3.36565 -1.16678 5.23749
upperback -0.743847 -1.71717 -0.708318
thorax 0.944794 -0.843596 -3.73673
lowerneck 1.70141 16.0211 2.05823
upperneck 1.83888 21.8034 -7.90373
head 1.49102 10.9367 -2.45503
rclavicle 1.60022e-014 -4.57205e-015
rhumerus -30.1883 -3.82408 -93.475
rradius 24.8554
rwrist 36.2552
rhand 14.0661 -18.8058
rfingers 7.12502
rthumb 38.9719 -44.3339
lclavicle 1.60022e-014 -4.57205e-015
lhumerus -35.8542 16.705 85.5891
lradius 30.6106
lwrist -20.0864
lhand -7.32098 14.0552
lfingers 7.12502
lthumb 18.5621 43.1896
rfemur -2.60792 18.0516 21.0517
rtibia 22.5442
rfoot -21.9441 -14.6356
rtoes -13.7359
lfemur -7.50253 -5.03862 -17.6165
ltibia 23.6622
lfoot -28.0317 -16.2014
ltoes -16.994
975
root 44.9777 17.8374 11.4042 899.122 63.332 1258.95
lowerback -3.35923 -1.1846 5.19711
upperback -0.761338 -1.7387 -0.68586
thorax 0.922877 -0.855285 -3.69105
lowerneck 1.72066 16.0486 2.10844
upperneck 1.87889 21.8488 -7.95079
head 1.51539 10.9595 -2.4732
rclavicle -4.9075e-015 1.19271e-015
rhumerus -30.2268 -3.59158 -93.5905
rradius 24.8498
rwrist 35.7067
rhand 13.6028 -19.0915
rfingers 7.12502
rthumb 38.5349 -44.7432
lclavicle -4.9075e-015 1.19271e-015
lhumerus -35.8845 16.6719 85.6145
lradius 30.6082
lwrist -20.0221
lhand -7.29916 14.061
lfingers 7.12502
lthumb 18.5831 43.1934
rfemur -2.62163 18.0081 21.0383
rtibia 22.5579
rfoot -21.9908 -14.4687
rtoes -13.7851
lfemur -7.4872 -5.04172 -17.6114
ltibia 23.6445
lfoot -27.7672 -16.394
ltoes -16.0631
